<mxfile host="app.diagrams.net" agent="Mozilla/5.0 (Windows NT 10.0; Win64; x64; rv:132.0) Gecko/20100101 Firefox/132.0" version="24.7.17" pages="2">
  <diagram name="Page-1" id="zHZe8oV2NRIceApb342o">
    <mxGraphModel dx="797" dy="431" grid="1" gridSize="10" guides="1" tooltips="1" connect="1" arrows="1" fold="1" page="1" pageScale="1" pageWidth="850" pageHeight="1100" math="0" shadow="0">
      <root>
        <mxCell id="0" />
        <mxCell id="1" parent="0" />
        <mxCell id="MjQd3fEfAFa7cJXNFyQw-1" value="" style="ellipse;whiteSpace=wrap;html=1;" parent="1" vertex="1">
          <mxGeometry x="250" y="140" width="300" height="200" as="geometry" />
        </mxCell>
        <mxCell id="MjQd3fEfAFa7cJXNFyQw-2" value="&lt;h1 style=&quot;margin-top: 0px;&quot;&gt;Application Ideas&lt;br&gt;&lt;/h1&gt;&lt;p&gt;Brainstorm app ideas, tasks you want to make easier, or problems you think can be solved with technology.&lt;br&gt;&lt;/p&gt;" style="text;html=1;whiteSpace=wrap;overflow=hidden;rounded=0;" parent="1" vertex="1">
          <mxGeometry x="275" y="30" width="250" height="120" as="geometry" />
        </mxCell>
        <mxCell id="MjQd3fEfAFa7cJXNFyQw-3" value="Limerick Generator" style="text;html=1;align=center;verticalAlign=middle;whiteSpace=wrap;rounded=0;" parent="1" vertex="1">
          <mxGeometry x="465" y="225" width="60" height="30" as="geometry" />
        </mxCell>
        <mxCell id="MjQd3fEfAFa7cJXNFyQw-4" value="Recipe Book" style="text;html=1;align=center;verticalAlign=middle;whiteSpace=wrap;rounded=0;" parent="1" vertex="1">
          <mxGeometry x="275" y="215" width="60" height="30" as="geometry" />
        </mxCell>
        <mxCell id="MjQd3fEfAFa7cJXNFyQw-5" value="Calculator" style="text;html=1;align=center;verticalAlign=middle;whiteSpace=wrap;rounded=0;" parent="1" vertex="1">
          <mxGeometry x="425" y="170" width="60" height="30" as="geometry" />
        </mxCell>
        <mxCell id="MjQd3fEfAFa7cJXNFyQw-6" value="Dice Roller" style="text;html=1;align=center;verticalAlign=middle;whiteSpace=wrap;rounded=0;" parent="1" vertex="1">
          <mxGeometry x="405" y="280" width="60" height="30" as="geometry" />
        </mxCell>
        <mxCell id="MjQd3fEfAFa7cJXNFyQw-7" value="&lt;div&gt;Todo List&lt;br&gt;&lt;/div&gt;" style="text;html=1;align=center;verticalAlign=middle;whiteSpace=wrap;rounded=0;" parent="1" vertex="1">
          <mxGeometry x="310" y="270" width="60" height="30" as="geometry" />
        </mxCell>
        <mxCell id="MjQd3fEfAFa7cJXNFyQw-8" value="Text-Based Adventure" style="text;html=1;align=center;verticalAlign=middle;whiteSpace=wrap;rounded=0;" parent="1" vertex="1">
          <mxGeometry x="320" y="170" width="75" height="30" as="geometry" />
        </mxCell>
        <mxCell id="MjQd3fEfAFa7cJXNFyQw-9" value="Password Generator" style="text;html=1;align=center;verticalAlign=middle;whiteSpace=wrap;rounded=0;" parent="1" vertex="1">
          <mxGeometry x="350" y="225" width="60" height="30" as="geometry" />
        </mxCell>
        <mxCell id="m8gioSrVSbrdT5OzjuUM-2" value="" style="ellipse;whiteSpace=wrap;html=1;fillColor=none;strokeColor=#b85450;strokeWidth=5;" vertex="1" parent="1">
          <mxGeometry x="260" y="200" width="90" height="60" as="geometry" />
        </mxCell>
      </root>
    </mxGraphModel>
  </diagram>
  <diagram id="RQhrbDS4rTG2RGa09TAC" name="Page-2">
    <mxGraphModel dx="1434" dy="775" grid="1" gridSize="10" guides="1" tooltips="1" connect="1" arrows="1" fold="1" page="1" pageScale="1" pageWidth="850" pageHeight="1100" math="0" shadow="0">
      <root>
        <mxCell id="0" />
        <mxCell id="1" parent="0" />
        <mxCell id="HK1ue_WxeVtMfOWF_ap--1" value="&lt;h1 style=&quot;margin-top: 0px;&quot;&gt;Top Level Design&lt;br&gt;&lt;/h1&gt;&lt;p&gt;At this level we simply want to consider the inputs and the outputs of our application, such as how is the user going to use the application. Maybe it&#39;s a website, or a mobile app, or a command-line interface (CLI)? What does the application output, text, video, events?&lt;br&gt;&lt;/p&gt;" style="text;html=1;whiteSpace=wrap;overflow=hidden;rounded=0;" vertex="1" parent="1">
          <mxGeometry x="120" y="40" width="300" height="130" as="geometry" />
        </mxCell>
        <mxCell id="HK1ue_WxeVtMfOWF_ap--2" value="" style="rounded=1;whiteSpace=wrap;html=1;" vertex="1" parent="1">
          <mxGeometry x="20" y="200" width="300" height="330" as="geometry" />
        </mxCell>
        <mxCell id="HK1ue_WxeVtMfOWF_ap--3" value="&lt;h1 style=&quot;margin-top: 0px;&quot;&gt;Website&lt;br&gt;&lt;/h1&gt;&lt;p&gt;Websites are a really effective way to make an application, in fact a lot of desktop or mobile applications are just fancy wrappers around a website, such as Discord.&lt;/p&gt;&lt;p&gt;Simple websites are easy to make, relatively simple and cheap to host&lt;br&gt;&lt;/p&gt;&lt;p&gt;&lt;br&gt;&lt;/p&gt;" style="text;html=1;whiteSpace=wrap;overflow=hidden;rounded=0;" vertex="1" parent="1">
          <mxGeometry x="50" y="230" width="230" height="270" as="geometry" />
        </mxCell>
      </root>
    </mxGraphModel>
  </diagram>
</mxfile>
